<svg width="7" height="7" viewBox="0 0 7 7" fill="none" xmlns="http://www.w3.org/2000/svg">
<path d="M6.54539 0H2.90903C2.65799 0 2.45448 0.203515 2.45448 0.45455C2.45448 0.705585 2.65799 0.9091 2.90903 0.9091H5.44803L0.769463 5.58768C0.591983 5.76516 0.591983 6.05298 0.769463 6.2305C0.858193 6.31923 0.974521 6.36362 1.09085 6.36362C1.20718 6.36362 1.32352 6.31923 1.41223 6.23048L6.09086 1.55191V4.09091C6.09086 4.34194 6.29437 4.54546 6.54541 4.54546C6.79644 4.54546 6.99996 4.34194 6.99996 4.09091V0.45455C6.99994 0.203515 6.79642 0 6.54539 0Z" fill="#8EA7FF"/>
</svg>
